<?xml version="1.0" encoding="UTF-8"?> <svg xmlns="http://www.w3.org/2000/svg" width="64" height="31" viewBox="0 0 64 31" fill="none"><g clip-path="url(#clip0_2048_3177)"><path d="M1.41124 25.7798C1.60587 25.7742 1.79908 25.8144 1.97533 25.8972C2.15157 25.9799 2.30592 26.1029 2.42594 26.2562V25.8298H3.0381V28.762H2.42594V28.3261C2.30395 28.4802 2.14754 28.6036 1.96925 28.6863C1.79097 28.769 1.59578 28.8088 1.39933 28.8025C0.639499 28.8025 0.0273438 28.1808 0.0273438 27.2757C0.0273438 26.3705 0.639499 25.7798 1.41124 25.7798ZM1.53749 26.3062C1.41377 26.3074 1.29164 26.3341 1.17871 26.3847C1.06577 26.4352 0.964464 26.5084 0.881098 26.5998C0.797732 26.6912 0.734099 26.7989 0.694171 26.916C0.654242 27.0331 0.638875 27.1571 0.649027 27.2804C0.638632 27.4051 0.653655 27.5306 0.693185 27.6493C0.732715 27.7679 0.79593 27.8774 0.879 27.9709C0.962069 28.0644 1.06326 28.1401 1.17645 28.1934C1.28964 28.2467 1.41246 28.2764 1.53749 28.2808C1.78065 28.2541 2.00538 28.1385 2.16863 27.9564C2.33188 27.7742 2.42215 27.5381 2.42215 27.2935C2.42215 27.0489 2.33188 26.8129 2.16863 26.6307C2.00538 26.4485 1.78065 26.333 1.53749 26.3062V26.3062Z" fill="#FCC206"></path><path d="M5.45116 25.7798C5.64263 25.7802 5.83184 25.8212 6.00633 25.9C6.18082 25.9788 6.33662 26.0937 6.46348 26.2371V24.8223H7.07564V28.7596H6.46348V28.3189C6.34453 28.474 6.19005 28.5983 6.01304 28.6812C5.83604 28.7641 5.6417 28.8032 5.4464 28.7953C4.67466 28.7953 4.0625 28.1736 4.0625 27.2685C4.0625 26.3634 4.67466 25.7798 5.45116 25.7798ZM5.57502 26.3062C5.45111 26.3071 5.32872 26.3336 5.2155 26.3839C5.10229 26.4343 5.00069 26.5075 4.91706 26.599C4.83344 26.6904 4.7696 26.7981 4.72953 26.9154C4.68945 27.0326 4.67402 27.1569 4.68418 27.2804C4.67378 27.4053 4.68888 27.5309 4.72856 27.6498C4.76823 27.7686 4.83166 27.8782 4.91498 27.9717C4.9983 28.0653 5.09978 28.141 5.21325 28.1941C5.32671 28.2472 5.4498 28.2767 5.57502 28.2808C5.81818 28.2541 6.04292 28.1385 6.20617 27.9564C6.36941 27.7742 6.45969 27.5381 6.45969 27.2935C6.45969 27.0489 6.36941 26.8129 6.20617 26.6307C6.04292 26.4485 5.81818 26.333 5.57502 26.3062V26.3062Z" fill="#FCC206"></path><path d="M9.48156 25.7798C9.67655 25.7741 9.87017 25.8142 10.0468 25.8969C10.2235 25.9797 10.3782 26.1027 10.4986 26.2562V25.8299H11.1108V28.762H10.4986V28.3261C10.3764 28.4799 10.2199 28.6031 10.0417 28.6858C9.86348 28.7685 9.66842 28.8085 9.47203 28.8025C8.70981 28.8025 8.09766 28.1808 8.09766 27.2757C8.09766 26.3706 8.70981 25.7798 9.48156 25.7798ZM9.61018 26.3062C9.48647 26.3075 9.36434 26.3342 9.2514 26.3847C9.13847 26.4352 9.03716 26.5085 8.95379 26.5999C8.87043 26.6913 8.80679 26.7989 8.76687 26.916C8.72694 27.0331 8.71157 27.1572 8.72172 27.2805C8.71133 27.4051 8.72635 27.5306 8.76588 27.6493C8.80541 27.768 8.86862 27.8774 8.95169 27.9709C9.03476 28.0645 9.13596 28.1402 9.24915 28.1934C9.36233 28.2467 9.48516 28.2765 9.61018 28.2809C9.85334 28.2541 10.0781 28.1386 10.2413 27.9564C10.4046 27.7742 10.4948 27.5382 10.4948 27.2936C10.4948 27.0489 10.4046 26.8129 10.2413 26.6307C10.0781 26.4485 9.85334 26.333 9.61018 26.3062Z" fill="#FCC206"></path><path d="M12.3359 24.8223H12.9433V28.7596H12.3359V24.8223Z" fill="#FCC206"></path><path d="M15.3487 25.7798C15.5437 25.7741 15.7374 25.8142 15.914 25.8969C16.0907 25.9797 16.2454 26.1027 16.3658 26.2562V25.8299H16.978V28.762H16.3658V28.3261C16.2436 28.4799 16.0871 28.6031 15.9089 28.6858C15.7307 28.7685 15.5356 28.8085 15.3392 28.8025C14.577 28.8025 13.9648 28.1808 13.9648 27.2757C13.9648 26.3706 14.577 25.7798 15.3487 25.7798ZM15.4774 26.3062C15.3537 26.3075 15.2315 26.3342 15.1186 26.3847C15.0057 26.4352 14.9043 26.5085 14.821 26.5999C14.7376 26.6913 14.674 26.7989 14.6341 26.916C14.5941 27.0331 14.5788 27.1572 14.5889 27.2805C14.5785 27.4051 14.5935 27.5306 14.6331 27.6493C14.6726 27.768 14.7358 27.8774 14.8189 27.9709C14.902 28.0645 15.0031 28.1402 15.1163 28.1934C15.2295 28.2467 15.3523 28.2765 15.4774 28.2809C15.7205 28.2541 15.9453 28.1386 16.1085 27.9564C16.2718 27.7742 16.362 27.5382 16.362 27.2936C16.362 27.0489 16.2718 26.8129 16.1085 26.6307C15.9453 26.4485 15.7205 26.333 15.4774 26.3062V26.3062Z" fill="#FCC206"></path><path d="M18.4468 28.797C18.3439 28.797 18.2451 28.7561 18.1723 28.6833C18.0995 28.6105 18.0586 28.5117 18.0586 28.4088C18.0586 28.3058 18.0995 28.207 18.1723 28.1342C18.2451 28.0614 18.3439 28.0205 18.4468 28.0205C18.5498 28.0205 18.6486 28.0614 18.7214 28.1342C18.7942 28.207 18.8351 28.3058 18.8351 28.4088C18.8351 28.5117 18.7942 28.6105 18.7214 28.6833C18.6486 28.7561 18.5498 28.797 18.4468 28.797V28.797Z" fill="#FCC206"></path><path d="M20.5185 25.827V29.3356C20.5185 29.931 20.1993 30.1549 19.6777 30.1549H19.3633V29.6428H19.5705C19.8254 29.6428 19.9111 29.5523 19.9111 29.3356V25.827H20.5185ZM19.8301 25.0505C19.8306 24.9744 19.8536 24.9001 19.8962 24.837C19.9387 24.7739 19.999 24.7248 20.0694 24.6959C20.1399 24.667 20.2172 24.6596 20.2919 24.6745C20.3665 24.6895 20.435 24.7262 20.4889 24.78C20.5427 24.8338 20.5794 24.9024 20.5943 24.977C20.6093 25.0516 20.6019 25.129 20.573 25.1994C20.544 25.2698 20.495 25.3301 20.4319 25.3727C20.3688 25.4153 20.2945 25.4383 20.2184 25.4387C20.1672 25.4394 20.1165 25.4298 20.0691 25.4105C20.0217 25.3912 19.9786 25.3626 19.9424 25.3264C19.9062 25.2903 19.8777 25.2472 19.8584 25.1998C19.8391 25.1524 19.8295 25.1016 19.8301 25.0505V25.0505Z" fill="#FCC206"></path><path d="M24.4008 28.7593H23.7934V28.4092C23.6881 28.5361 23.5553 28.6374 23.4051 28.7055C23.2549 28.7736 23.0912 28.8066 22.9264 28.8022C22.2404 28.8022 21.7188 28.371 21.7188 27.5517V25.8271H22.319V27.4612C22.319 27.9995 22.612 28.2758 23.0526 28.2758C23.4933 28.2758 23.7934 27.9995 23.7934 27.4612V25.8271H24.4008V28.7593Z" fill="#FCC206"></path><path d="M26.6892 28.8067C25.9746 28.8067 25.4982 28.3923 25.4648 27.854H26.0937C26.1165 27.9881 26.1896 28.1085 26.2979 28.1908C26.4063 28.273 26.5419 28.311 26.6772 28.297C27.0274 28.297 27.2132 28.1469 27.2132 27.9445C27.2132 27.3704 25.5101 27.7063 25.5101 26.6249C25.5101 26.1485 25.946 25.7793 26.6391 25.7793C27.3323 25.7793 27.7396 26.1366 27.7729 26.7321H27.1655C27.1601 26.6669 27.1413 26.6035 27.1103 26.5459C27.0793 26.4884 27.0368 26.4378 26.9854 26.3973C26.934 26.3569 26.8748 26.3274 26.8116 26.3109C26.7483 26.2943 26.6823 26.2909 26.6177 26.3009C26.2938 26.3009 26.1223 26.4343 26.1223 26.632C26.1223 27.2227 27.7777 26.8917 27.8087 27.9516C27.811 28.4351 27.3918 28.8067 26.6892 28.8067Z" fill="#FCC206"></path><path d="M28.9884 26.3229H28.6406V25.8275H28.9884V25.0986H29.6005V25.8275H30.3151V26.3229H29.6005V27.945C29.6005 28.1642 29.6863 28.2547 29.9412 28.2547H30.3127V28.7597H29.8364C29.3147 28.7597 28.9908 28.5429 28.9908 27.945L28.9884 26.3229Z" fill="#FCC206"></path><path d="M31.2188 25.0505C31.2193 24.9744 31.2422 24.9001 31.2848 24.837C31.3274 24.7739 31.3877 24.7248 31.4581 24.6959C31.5285 24.667 31.6059 24.6596 31.6805 24.6745C31.7551 24.6895 31.8237 24.7262 31.8775 24.78C31.9313 24.8338 31.968 24.9024 31.983 24.977C31.9979 25.0516 31.9905 25.129 31.9616 25.1994C31.9327 25.2698 31.8836 25.3301 31.8205 25.3727C31.7574 25.4153 31.6831 25.4383 31.607 25.4387C31.5559 25.4394 31.5051 25.4298 31.4577 25.4105C31.4103 25.3912 31.3672 25.3626 31.3311 25.3264C31.2949 25.2903 31.2663 25.2472 31.247 25.1998C31.2277 25.1524 31.2181 25.1016 31.2188 25.0505V25.0505ZM31.2998 25.827H31.9167V28.7591H31.3093L31.2998 25.827Z" fill="#FCC206"></path><path d="M34.3649 25.7793C35.0795 25.7793 35.5559 26.1366 35.7179 26.7535H35.0628C35.0142 26.6098 34.9194 26.4863 34.7931 26.4023C34.6668 26.3182 34.5163 26.2784 34.3649 26.289C33.8743 26.289 33.5503 26.6511 33.5503 27.2894C33.5503 27.9278 33.8743 28.297 34.3649 28.297C34.5183 28.3099 34.6715 28.2696 34.7986 28.1829C34.9257 28.0961 35.019 27.9682 35.0628 27.8206H35.7274C35.6489 28.1141 35.4712 28.3714 35.2247 28.549C34.9781 28.7265 34.6777 28.8134 34.3745 28.7948C33.5336 28.7948 32.9453 28.1993 32.9453 27.2775C32.9453 26.3557 33.5241 25.7793 34.3649 25.7793Z" fill="#FCC206"></path><path d="M38.0133 28.8072C37.1725 28.8072 36.5508 28.2117 36.5508 27.2899C36.5508 26.3681 37.1463 25.7798 38.0133 25.7798C38.2033 25.771 38.3931 25.8019 38.5705 25.8706C38.7479 25.9393 38.9089 26.0443 39.0435 26.1788C39.178 26.3133 39.2829 26.4744 39.3516 26.6518C39.4203 26.8292 39.4513 27.0189 39.4424 27.2089C39.4436 27.3094 39.4364 27.4098 39.421 27.5091H37.1796C37.1877 27.7229 37.2802 27.9247 37.437 28.0703C37.5938 28.2159 37.8019 28.2933 38.0157 28.2856C38.159 28.2949 38.3018 28.2607 38.4254 28.1876C38.5491 28.1146 38.6478 28.0059 38.7088 27.8759H39.3615C39.2717 28.1585 39.0905 28.4034 38.8465 28.5719C38.6025 28.7405 38.3094 28.8233 38.0133 28.8072V28.8072ZM37.1844 27.0303H38.8065C38.8039 26.927 38.7803 26.8254 38.7372 26.7315C38.694 26.6376 38.6323 26.5535 38.5557 26.4842C38.479 26.4149 38.3891 26.3619 38.2914 26.3284C38.1936 26.295 38.0901 26.2817 37.9871 26.2895C37.7842 26.2878 37.5882 26.3634 37.4391 26.501C37.29 26.6387 37.1989 26.8279 37.1844 27.0303V27.0303Z" fill="#FCC206"></path><path d="M40.7047 28.797C40.6017 28.797 40.5029 28.7561 40.4301 28.6833C40.3573 28.6105 40.3164 28.5117 40.3164 28.4088C40.3164 28.3058 40.3573 28.207 40.4301 28.1342C40.5029 28.0614 40.6017 28.0205 40.7047 28.0205C40.8076 28.0205 40.9064 28.0614 40.9792 28.1342C41.052 28.207 41.0929 28.3058 41.0929 28.4088C41.0929 28.5117 41.052 28.6105 40.9792 28.6833C40.9064 28.7561 40.8076 28.797 40.7047 28.797V28.797Z" fill="#FCC206"></path><path d="M43.3486 25.7799C43.5436 25.7739 43.7373 25.8139 43.9139 25.8967C44.0906 25.9794 44.2454 26.1026 44.3656 26.2563V25.8299H44.9778V28.8097C44.9778 29.6076 44.4609 30.2103 43.5486 30.2103C42.765 30.2103 42.1862 29.822 42.1195 29.1717H42.7221C42.7873 29.3361 42.904 29.4748 43.0548 29.5671C43.2055 29.6595 43.3822 29.7004 43.5582 29.6839C44.0345 29.6839 44.3775 29.3956 44.3775 28.8097V28.3333C44.2564 28.486 44.1015 28.6084 43.925 28.6911C43.7485 28.7737 43.5553 28.8143 43.3605 28.8097C42.5887 28.8097 41.9766 28.188 41.9766 27.2829C41.9766 26.3777 42.5792 25.7799 43.3486 25.7799ZM43.4772 26.3063C43.3533 26.3072 43.2309 26.3336 43.1177 26.384C43.0044 26.4344 42.9028 26.5076 42.8192 26.599C42.7356 26.6905 42.6717 26.7982 42.6317 26.9155C42.5916 27.0327 42.5762 27.157 42.5863 27.2805C42.5759 27.4054 42.591 27.531 42.6307 27.6499C42.6704 27.7687 42.7338 27.8782 42.8171 27.9718C42.9005 28.0654 43.0019 28.141 43.1154 28.1942C43.2289 28.2473 43.3519 28.2768 43.4772 28.2809C43.7203 28.2542 43.9451 28.1386 44.1083 27.9564C44.2716 27.7742 44.3618 27.5382 44.3618 27.2936C44.3618 27.049 44.2716 26.8129 44.1083 26.6308C43.9451 26.4486 43.7203 26.333 43.4772 26.3063Z" fill="#FCC206"></path><path d="M47.4763 28.8071C47.2776 28.8131 47.0798 28.7776 46.8956 28.7028C46.7114 28.6281 46.5448 28.5157 46.4065 28.3729C46.2682 28.2301 46.1612 28.06 46.0923 27.8735C46.0235 27.687 45.9943 27.4882 46.0067 27.2898C46.0067 26.8931 46.1643 26.5126 46.4448 26.2321C46.7253 25.9515 47.1058 25.7939 47.5025 25.7939C47.8992 25.7939 48.2797 25.9515 48.5602 26.2321C48.8408 26.5126 48.9984 26.8931 48.9984 27.2898C49.005 27.4913 48.9702 27.6919 48.896 27.8793C48.8218 28.0668 48.7098 28.2369 48.5671 28.3792C48.4243 28.5215 48.2538 28.633 48.0662 28.7066C47.8785 28.7802 47.6778 28.8144 47.4763 28.8071V28.8071ZM47.4763 28.2807C47.6025 28.2809 47.7273 28.2548 47.8427 28.2039C47.9581 28.1529 48.0615 28.0784 48.1464 27.985C48.2312 27.8917 48.2955 27.7816 48.3352 27.6618C48.3749 27.5421 48.389 27.4153 48.3767 27.2898C48.3767 26.6252 47.9456 26.3061 47.493 26.3061C47.0404 26.3061 46.626 26.6252 46.626 27.2898C46.626 27.9544 47.019 28.2807 47.4763 28.2807Z" fill="#FCC206"></path><path d="M50.3313 25.8271L51.1626 28.2091L51.9915 25.8271H52.6394L51.5223 28.7593H50.8077L49.6953 25.8271H50.3313Z" fill="#FCC206"></path><path d="M53.7641 28.798C53.6871 28.7989 53.6116 28.7769 53.5471 28.7349C53.4827 28.6928 53.4322 28.6325 53.402 28.5616C53.3719 28.4908 53.3635 28.4126 53.378 28.3369C53.3924 28.2613 53.429 28.1917 53.4831 28.1369C53.5372 28.0821 53.6064 28.0447 53.6818 28.0293C53.7573 28.0139 53.8356 28.0213 53.9068 28.0506C53.978 28.0798 54.0389 28.1296 54.0818 28.1935C54.1247 28.2575 54.1476 28.3327 54.1476 28.4097C54.1482 28.4605 54.1388 28.5109 54.1198 28.5579C54.1008 28.605 54.0727 28.6478 54.037 28.684C54.0013 28.7201 53.9588 28.7488 53.912 28.7683C53.8651 28.7879 53.8149 28.798 53.7641 28.798V28.798Z" fill="#FCC206"></path><path d="M59.3869 27.1211C59.3869 26.5828 59.094 26.3065 58.6509 26.3065C58.2079 26.3065 57.9125 26.5828 57.9125 27.1211V28.7599H57.3099V27.1211C57.3099 26.5828 57.0193 26.3065 56.5763 26.3065C56.1332 26.3065 55.8355 26.5828 55.8355 27.1211V28.7599H55.2305V25.8277H55.8355V26.1636C55.9433 26.0397 56.0771 25.9411 56.2274 25.8748C56.3776 25.8085 56.5407 25.7762 56.7049 25.7801C56.917 25.7682 57.1281 25.8162 57.3143 25.9186C57.5004 26.0209 57.654 26.1735 57.7577 26.3589C57.8603 26.1795 58.0094 26.0311 58.1892 25.9293C58.369 25.8274 58.5729 25.7759 58.7795 25.7801C59.4655 25.7801 59.9872 26.2112 59.9872 27.0306V28.7599H59.3869V27.1211Z" fill="#FCC206"></path><path d="M62.3683 25.7798C62.5633 25.7741 62.7569 25.8142 62.9335 25.8969C63.1102 25.9797 63.265 26.1027 63.3854 26.2562V25.8299H63.9975V28.762H63.3854V28.3261C63.2626 28.48 63.1057 28.6031 62.9271 28.6858C62.7485 28.7685 62.5531 28.8085 62.3564 28.8025C61.5965 28.8025 60.9844 28.1808 60.9844 27.2757C60.9844 26.3706 61.5965 25.7798 62.3683 25.7798ZM62.4945 26.3062C62.3708 26.3075 62.2487 26.3342 62.1357 26.3847C62.0228 26.4352 61.9215 26.5085 61.8381 26.5999C61.7548 26.6913 61.6911 26.7989 61.6512 26.916C61.6113 27.0331 61.5959 27.1572 61.6061 27.2805C61.5957 27.4051 61.6107 27.5306 61.6502 27.6493C61.6897 27.768 61.753 27.8774 61.836 27.9709C61.9191 28.0645 62.0203 28.1402 62.1335 28.1934C62.2467 28.2467 62.3695 28.2765 62.4945 28.2809C62.7377 28.2541 62.9624 28.1386 63.1257 27.9564C63.2889 27.7742 63.3792 27.5382 63.3792 27.2936C63.3792 27.0489 63.2889 26.8129 63.1257 26.6307C62.9624 26.4485 62.7377 26.333 62.4945 26.3062Z" fill="#FCC206"></path><path d="M63.9702 19.5723H39.9961V22.9689H63.9702V19.5723Z" fill="#1E416B"></path><path d="M23.9059 19.5723H7.30859V22.9689H23.9059V19.5723Z" fill="#1E416B"></path><path d="M32.3625 0V19.3341V22.9856H28.7539V0H32.3625Z" fill="#1E416B"></path><path d="M23.9055 0V19.3341V22.9856H20.2969V0H23.9055Z" fill="#1E416B"></path><path d="M60.4375 19.5889H37.1875V22.9855H60.4375V19.5889Z" fill="#1E416B"></path><path d="M23.905 19.5723H7.21484V22.9689H23.905V19.5723Z" fill="url(#paint0_linear_2048_3177)"></path><path d="M63.9702 19.5889H39.9961V22.9855H63.9702V19.5889Z" fill="url(#paint1_linear_2048_3177)"></path><path d="M63.9688 0H53.4883V3.39663H63.9688V0Z" fill="#FCC206"></path><path d="M47.668 0H37.1875V3.39663H47.668V0Z" fill="#FCC206"></path><path d="M6.9418 22.9687C5.56833 22.9691 4.22559 22.5623 3.0834 21.7995C1.94121 21.0367 1.0509 19.9524 0.525081 18.6835C-0.000737222 17.4147 -0.138439 16.0185 0.129395 14.6714C0.397228 13.3243 1.05856 12.0869 2.02975 11.1157C3.00093 10.1445 4.23833 9.48317 5.58542 9.21533C6.93252 8.9475 8.32878 9.0852 9.59761 9.61102C10.8664 10.1368 11.9508 11.0271 12.7136 12.1693C13.4763 13.3115 13.8832 14.6543 13.8827 16.0277C13.8808 17.868 13.149 19.6324 11.8477 20.9336C10.5464 22.2349 8.78207 22.9668 6.9418 22.9687ZM6.9418 12.4882C6.23962 12.4863 5.55269 12.6929 4.96803 13.0818C4.38337 13.4707 3.92731 14.0243 3.65762 14.6727C3.38792 15.321 3.31674 16.0348 3.4531 16.7236C3.58945 17.4124 3.9272 18.0452 4.42354 18.5419C4.91989 19.0386 5.5525 19.3768 6.24122 19.5136C6.92994 19.6504 7.64377 19.5797 8.29228 19.3104C8.94078 19.0412 9.49477 18.5855 9.88404 18.0011C10.2733 17.4167 10.4804 16.7299 10.479 16.0277C10.4777 15.0891 10.1049 14.1892 9.44214 13.5246C8.77934 12.86 7.8804 12.4848 6.9418 12.481V12.4882Z" fill="#1E416B"></path><path d="M3.38611 4.32594C4.57664 4.32594 5.54176 3.36082 5.54176 2.17029C5.54176 0.979763 4.57664 0.0146484 3.38611 0.0146484C2.19558 0.0146484 1.23047 0.979763 1.23047 2.17029C1.23047 3.36082 2.19558 4.32594 3.38611 4.32594Z" fill="#FCC206"></path><path d="M10.4916 4.32594C11.6821 4.32594 12.6472 3.36082 12.6472 2.17029C12.6472 0.979763 11.6821 0.0146484 10.4916 0.0146484C9.30105 0.0146484 8.33594 0.979763 8.33594 2.17029C8.33594 3.36082 9.30105 4.32594 10.4916 4.32594Z" fill="#FCC206"></path><path d="M60.5623 12.4953H63.9708V9.09865H60.5623C58.7939 9.09461 57.0906 9.76571 55.8002 10.9749C54.5099 12.1842 53.7297 13.8403 53.6191 15.6053C53.5084 17.3702 54.0756 19.1108 55.2049 20.4718C56.3341 21.8327 57.9402 22.7113 59.6953 22.9281V22.9853H63.9708V19.5887H60.5623C59.6216 19.5887 58.7195 19.215 58.0544 18.5499C57.3893 17.8847 57.0156 16.9826 57.0156 16.042C57.0156 15.1013 57.3893 14.1992 58.0544 13.5341C58.7195 12.8689 59.6216 12.4953 60.5623 12.4953V12.4953Z" fill="#1E416B"></path><path d="M40.5937 12.4953H37.1875V9.09865H40.5937C42.3621 9.09461 44.0653 9.76571 45.3557 10.9749C46.6461 12.1842 47.4262 13.8403 47.5369 15.6053C47.6475 17.3702 47.0803 19.1108 45.9511 20.4718C44.8219 21.8327 43.2157 22.7113 41.4607 22.9281V22.9853H37.1875V19.5887H40.5937C41.5343 19.5887 42.4364 19.215 43.1015 18.5499C43.7667 17.8847 44.1403 16.9826 44.1403 16.042C44.1403 15.1013 43.7667 14.1992 43.1015 13.5341C42.4364 12.8689 41.5343 12.4953 40.5937 12.4953V12.4953Z" fill="#1E416B"></path></g><defs><linearGradient id="paint0_linear_2048_3177" x1="29.6597" y1="21.2706" x2="12.7933" y2="21.2706" gradientUnits="userSpaceOnUse"><stop offset="0.71" stop-color="#1E416B"></stop><stop offset="0.76" stop-color="#1C3C63" stop-opacity="0.95"></stop><stop offset="0.83" stop-color="#162F4D" stop-opacity="0.82"></stop><stop offset="0.93" stop-color="#0D1A29" stop-opacity="0.6"></stop><stop offset="1" stop-color="#050608" stop-opacity="0.4"></stop></linearGradient><linearGradient id="paint1_linear_2048_3177" x1="31.7308" y1="21.2872" x2="55.7049" y2="21.2872" gradientUnits="userSpaceOnUse"><stop offset="0.6" stop-color="#1E416B"></stop><stop offset="0.67" stop-color="#1C3C63" stop-opacity="0.95"></stop><stop offset="0.77" stop-color="#162F4D" stop-opacity="0.82"></stop><stop offset="0.9" stop-color="#0D1A29" stop-opacity="0.6"></stop><stop offset="1" stop-color="#050608" stop-opacity="0.4"></stop></linearGradient><clipPath id="clip0_2048_3177"><rect width="64" height="30.2076" fill="white"></rect></clipPath></defs></svg> 