<?xml version="1.0" encoding="UTF-8"?> <svg xmlns="http://www.w3.org/2000/svg" id="Calque_1" data-name="Calque 1" viewBox="0 0 359.3 158.14"><defs><style>.cls-1{fill:#1e416b;}.cls-2{fill:#fcc206;}.cls-3,.cls-4{fill:#080c11;}.cls-4{opacity:0.45;}</style></defs><path class="cls-1" d="M320.6,62.11Q313.46,53,300.1,53H283.57V92.54H263.25l-.09-.15V83.31c0-.73,0-1.42-.08-2.1a43.47,43.47,0,0,0-.77-7,27,27,0,0,0-9-15.61,24.29,24.29,0,0,0-13.7-5.49V53H218v13.4h20.34a13.44,13.44,0,0,1,3.91,1,12.49,12.49,0,0,1,5.12,4.58A14.43,14.43,0,0,1,249,76a27.06,27.06,0,0,1,.78,5,6.36,6.36,0,0,1,.08,1,7.85,7.85,0,0,1-.08,1.08l.08,9.32H211.58v0H198.12v-72H184.69V106h28.69v0H326.81V83.07Q326.81,70,320.6,62.11Zm-7.14,30.43H296.92V66.3h3q7.07,0,10.24,4.19t3.27,12.42Zm-153-72.08L121.84,52.71v13.4h20.34a13.53,13.53,0,0,1,3.91,1.06,12.49,12.49,0,0,1,5.12,4.58,14.79,14.79,0,0,1,1.63,4,26.94,26.94,0,0,1,.78,5,6.41,6.41,0,0,1,.07,1,7.88,7.88,0,0,1-.07,1.09l.07,9.32H98.28V52.8H81.74q-13.35,0-20.49,9.08Q55,69.8,55,82.84v10c-3.57.19-5,.34-5,.34a23.31,23.31,0,0,0-13.12,8q-5.28,6.6-6.21,16.93l-.15,1.7-.39,3.89h0v8.18H43.58v-8.18h.05l.31-3.19L44.1,119q.61-6.92,3.88-10.09c2-2,4.81-3,8.47-3.16H98.28v-.07H167V82.87c0-.68,0-1.33-.07-2a44.84,44.84,0,0,0-.78-7,27,27,0,0,0-9-15.6,24.29,24.29,0,0,0-13.7-5.49v-.12h-1.32l37.45-32.25Zm-92,70.91V81.74q0-8.22,3.26-12.42T81.9,65.13h3V91.25c-5.11,0-9.55.06-13.37.12Z"></path><path class="cls-2" d="M50.32,118.59h2.21l3,10.92,3.23-10.92H61l3.16,10.94,2.94-10.94h2.14l-4.06,13H62.9l-3.13-10.33L56.63,131.6H54.4Z"></path><path class="cls-2" d="M74.05,118.59h2.21l3,10.92,3.22-10.92h2.21l3.15,10.94,3-10.94h2.13l-4,13H86.63l-3.14-10.33L80.36,131.6H78.13Z"></path><path class="cls-2" d="M97.78,118.59H100l3,10.92,3.23-10.92h2.21l3.15,10.94,2.94-10.94h2.14l-4.06,13h-2.23l-3.13-10.33-3.13,10.33h-2.23Z"></path><path class="cls-2" d="M123.73,131.74a1.47,1.47,0,1,1,1.43-1.47A1.45,1.45,0,0,1,123.73,131.74Z"></path><path class="cls-2" d="M151.07,124.24c0-2.66-1.43-4-3.56-4s-3.68,1.4-3.68,4.2v7.17H141.7v-7.36c0-2.66-1.43-4-3.56-4s-3.68,1.4-3.68,4.2v7.17H132.3v-13h2.16v1.88a4.69,4.69,0,0,1,4.1-2.11,4.88,4.88,0,0,1,4.77,2.89,4.82,4.82,0,0,1,4.61-2.89c3,0,5.26,1.85,5.26,5.57v7.67h-2.13Z"></path><path class="cls-2" d="M166.37,118.38a5.38,5.38,0,0,1,4.84,2.59v-2.38h2.19v13h-2.19v-2.42a5.41,5.41,0,0,1-4.86,2.63c-3.47,0-6.15-2.73-6.15-6.76S162.88,118.38,166.37,118.38Zm.43,1.87c-2.37,0-4.39,1.74-4.39,4.8s2,4.86,4.39,4.86,4.41-1.78,4.41-4.84S169.17,120.25,166.8,120.25Z"></path><path class="cls-2" d="M181.32,114h2.16v6.43a4.88,4.88,0,0,1,4.29-2.11c2.9,0,5.2,1.85,5.2,5.57v7.67h-2.14v-7.36c0-2.66-1.44-4-3.63-4s-3.72,1.38-3.72,4.18v7.19h-2.16Z"></path><path class="cls-2" d="M206.14,118.38A5.38,5.38,0,0,1,211,121v-2.38h2.18v13H211v-2.42a5.42,5.42,0,0,1-4.86,2.63c-3.47,0-6.15-2.73-6.15-6.76S202.65,118.38,206.14,118.38Zm.43,1.87c-2.38,0-4.39,1.74-4.39,4.8s2,4.86,4.39,4.86,4.41-1.78,4.41-4.84S208.94,120.25,206.57,120.25Z"></path><path class="cls-2" d="M221.09,114h2.16v10.32l5-5.77h3l-6.13,6.48,6.15,6.53h-2.94l-5.1-5.75v5.75h-2.16Z"></path><path class="cls-2" d="M237.22,115a1.45,1.45,0,1,1,1.47,1.47A1.45,1.45,0,0,1,237.22,115Zm.36,3.58h2.16v13h-2.16Z"></path><path class="cls-2" d="M266.45,124.24c0-2.66-1.42-4-3.56-4s-3.67,1.4-3.67,4.2v7.17h-2.14v-7.36c0-2.66-1.42-4-3.56-4s-3.68,1.4-3.68,4.2v7.17h-2.16v-13h2.16v1.88a4.7,4.7,0,0,1,4.11-2.11,4.89,4.89,0,0,1,4.77,2.89,4.82,4.82,0,0,1,4.6-2.89c3,0,5.27,1.85,5.27,5.57v7.67h-2.14Z"></path><path class="cls-2" d="M277.08,131.74a1.47,1.47,0,1,1,1.43-1.47A1.45,1.45,0,0,1,277.08,131.74Z"></path><path class="cls-2" d="M304.42,124.24c0-2.66-1.43-4-3.56-4s-3.68,1.4-3.68,4.2v7.17H295v-7.36c0-2.66-1.42-4-3.55-4s-3.68,1.4-3.68,4.2v7.17h-2.16v-13h2.16v1.88a4.68,4.68,0,0,1,4.1-2.11,4.88,4.88,0,0,1,4.77,2.89,4.82,4.82,0,0,1,4.61-2.89c3,0,5.26,1.85,5.26,5.57v7.67h-2.13Z"></path><path class="cls-2" d="M319.72,118.38a5.38,5.38,0,0,1,4.84,2.59v-2.38h2.18v13h-2.18v-2.42a5.42,5.42,0,0,1-4.86,2.63c-3.47,0-6.15-2.73-6.15-6.76S316.23,118.38,319.72,118.38Zm.43,1.87c-2.37,0-4.39,1.74-4.39,4.8s2,4.86,4.39,4.86,4.41-1.78,4.41-4.84S322.52,120.25,320.15,120.25Z"></path><path class="cls-3" d="M283.62,92.58V106S277.13,92.58,266,92.58Z"></path><path class="cls-4" d="M98.27,92.07V105.5s6.49-13.43,17.59-13.43Z"></path><path class="cls-4" d="M142.23,52.75H121.89l18.63-15.57S130.35,52.61,142.23,52.75Z"></path></svg> 